<svg xmlns="http://www.w3.org/2000/svg" viewBox="0 0 112 112">
  <defs>
    <clipPath id="a">
      <path fill="none" d="M100.31 101.1H39.45V12.8h40.78l20.08 21.03v67.27z"/>
    </clipPath>
  </defs>
  <path d="M38.54 39.69h1.82a11.78 11.78 0 0111.78 11.78v13.6h0-25.37 0v-13.6a11.78 11.78 0 0111.77-11.78z" stroke-miterlimit="10" stroke-width="9.48" stroke="#a4a7ab" fill="none"/>
  <g clip-path="url(#a)">
    <path fill="#90c3ff" d="M100.31 101.1H39.45V12.8h40.78l20.08 21.03v67.27z"/>
    <path d="M80.28 10.59h23.26v23.26H87.32a7 7 0 01-7-7V10.59h-.04z" fill="#1876f2"/>
    <path d="M38.54 39.69h1.82a11.78 11.78 0 0111.78 11.78v13.6h0-25.37 0v-13.6a11.78 11.78 0 0111.77-11.78z" stroke="#fff" stroke-miterlimit="10" stroke-width="9.48" fill="none"/>
  </g>
  <rect x="10.54" y="58.29" width="57.83" height="42.76" rx="4.41" fill="#64676b"/>
  <circle cx="39.45" cy="75.25" r="6.3"/>
  <path d="M36.62 73.73h5.67v12.48a2.63 2.63 0 01-2.63 2.63h-.41a2.63 2.63 0 01-2.63-2.63V73.73z"/>
</svg>
